#!OML:ASF X:\für Bonn\!DataBase\2005_08_11_Bastian_Final\c3d\Bastian.ASF
:FULLY-SPECIFIED
:DEGREES
95
root 0.676458 12.0593 1.08703 171.194 -3.66936 -170.392
lowerback 34.5553 0.269922 1.06499
upperback 6.09072 -1.01176 2.39989
thorax -10.7758 -1.33815 2.55152
lowerneck -13.739 -6.64668 -1.9339
upperneck -11.3609 -6.27371 11.9694
head -0.81609 -2.25586 4.0433
rclavicle 8.74653e-015 -5.56597e-015
rhumerus 70.1008 0.32884 22.5005
rradius 42.1368
rwrist -73.9982
rhand -50.413 -4.05009
rfingers 7.12502
rthumb -22.9854 -32.6997
lclavicle 8.74653e-015 -5.56597e-015
lhumerus 67.6309 -10.8084 -30.2521
lradius 32.7146
lwrist 26.0042
lhand -49.5 22.758
lfingers 7.12502
lthumb -22.1092 51.514
rfemur -46.4696 -17.4359 31.8209
rtibia 113.117
rfoot -31.2984 -17.0016
rtoes -16.4913
lfemur -50.1482 6.41766 -8.58096
ltibia 117.287
lfoot -30.4828 -9.9057
ltoes -25.5335
96
root 0.67348 12.3299 1.04798 171.325 -3.69589 -170.377
lowerback 34.0063 0.237792 0.859365
upperback 6.07263 -1.08543 2.42608
thorax -10.5834 -1.34767 2.70164
lowerneck -14.0302 -6.6366 -2.04139
upperneck -10.9385 -6.32871 11.9392
head -0.619564 -2.27544 4.03494
rclavicle -1.23246e-014 3.18055e-015
rhumerus 70.4102 0.320633 23.0922
rradius 42.0326
rwrist -73.7841
rhand -50.4566 -4.66606
rfingers 7.12502
rthumb -23.0273 -33.3104
lclavicle -1.23246e-014 3.18055e-015
lhumerus 67.8924 -10.5625 -31.4759
lradius 32.5676
lwrist 26.303
lhand -50.0146 22.9594
lfingers 7.12502
lthumb -22.6031 51.656
rfemur -45.0247 -16.523 31.9764
rtibia 110.506
rfoot -30.6198 -17.7279
rtoes -17.4238
lfemur -48.6558 5.33331 -8.78633
ltibia 114.76
lfoot -29.9035 -8.87004
ltoes -26.5462
97
root 0.670152 12.6014 1.00706 171.497 -3.73248 -170.36
lowerback 33.3801 0.186712 0.668391
upperback 6.04937 -1.17161 2.44275
thorax -10.3628 -1.36124 2.83575
lowerneck -14.2986 -6.61716 -2.06546
upperneck -10.5384 -6.38048 11.8442
head -0.440924 -2.29834 3.98966
rclavicle 1.03368e-014 1.51076e-014
rhumerus 70.8035 0.371174 23.7677
rradius 41.8521
rwrist -73.5999
rhand -50.4711 -5.25568
rfingers 7.12502
rthumb -23.0412 -33.8983
lclavicle 1.03368e-014 1.51076e-014
lhumerus 68.153 -10.3161 -32.5747
lradius 32.3849
lwrist 26.5051
lhand -50.4981 23.2684
lfingers 7.12502
lthumb -23.0671 51.9077
rfemur -43.5257 -15.5492 32.1329
rtibia 107.815
rfoot -30.1764 -18.2173
rtoes -17.8592
lfemur -47.1704 4.30532 -8.98936
ltibia 112.178
lfoot -29.3918 -7.82711
ltoes -27.5994
98
root 0.666221 12.8702 0.965273 171.774 -3.75662 -170.329
lowerback 32.6463 0.128048 0.480749
upperback 5.99803 -1.24971 2.47442
thorax -10.1266 -1.36602 2.97769
lowerneck -14.5535 -6.59794 -2.13534
upperneck -10.1248 -6.42953 11.7643
head -0.257811 -2.31992 3.95945
rclavicle -9.54166e-015 -2.8625e-014
rhumerus 71.2301 0.438433 24.6606
rradius 41.7031
rwrist -73.7984
rhand -50.4934 -5.63527
rfingers 7.12502
rthumb -23.0626 -34.2752
lclavicle -9.54166e-015 -2.8625e-014
lhumerus 68.4617 -10.074 -33.5323
lradius 32.1337
lwrist 26.6833
lhand -50.7845 23.5784
lfingers 7.12502
lthumb -23.3418 52.1832
rfemur -42.1117 -14.5118 32.3309
rtibia 105.064
rfoot -30.0005 -18.3884
rtoes -17.3092
lfemur -45.7961 3.35835 -9.1677
ltibia 109.573
lfoot -28.9275 -6.8414
ltoes -28.5238
99
root 0.661566 13.1367 0.922594 172.085 -3.78467 -170.318
lowerback 31.8713 0.0555475 0.316837
upperback 5.93422 -1.33283 2.48261
thorax -9.88198 -1.372 3.08197
lowerneck -14.8551 -6.58234 -2.17765
upperneck -9.65028 -6.4967 11.6585
head -0.0477384 -2.35047 3.91279
rclavicle 3.97569e-016 4.45278e-014
rhumerus 71.6847 0.525345 25.7161
rradius 41.5713
rwrist -74.3271
rhand -50.5258 -5.92781
rfingers 7.12502
rthumb -23.0936 -34.5639
lclavicle 3.97569e-016 4.45278e-014
lhumerus 68.8404 -9.86298 -34.5258
lradius 31.8587
lwrist 26.9825
lhand -50.8907 23.8006
lfingers 7.12502
lthumb -23.4437 52.3924
rfemur -40.7175 -13.4362 32.4913
rtibia 102.219
rfoot -30.0163 -18.1787
rtoes -16.1821
lfemur -44.4553 2.4636 -9.37839
ltibia 106.937
lfoot -28.5684 -5.77373
ltoes -29.6443
100
root 0.656092 13.4019 0.879202 172.454 -3.81123 -170.314
lowerback 30.8154 -0.0182971 0.156217
upperback 6.25237 -1.4126 2.38635
thorax -9.78969 -1.35095 3.28495
lowerneck -15.1286 -6.58063 -2.24674
upperneck -9.21948 -6.56892 11.5701
head 0.145471 -2.3831 3.87912
rclavicle 1.27222e-014 1.27222e-014
rhumerus 72.1518 0.600507 26.7146
rradius 41.4583
rwrist -75.0513
rhand -50.4954 -6.07781
rfingers 7.12502
rthumb -23.0645 -34.7175
lclavicle 1.27222e-014 1.27222e-014
lhumerus 69.3017 -9.66867 -35.9369
lradius 31.6564
lwrist 27.7568
lhand -50.8228 24.0954
lfingers 7.12502
lthumb -23.3786 52.6955
rfemur -39.3815 -12.2528 32.6469
rtibia 99.251
rfoot -30.1602 -17.5346
rtoes -14.2588
lfemur -43.159 1.60955 -9.58881
ltibia 104.266
lfoot -28.2752 -4.69738
ltoes -30.8932
